<svg width="400" height="120" viewBox="0 0 400 120" xmlns="http://www.w3.org/2000/svg">
  <!-- Background -->
  <rect width="400" height="120" fill="#4A90E2" rx="8"/>
  
  <!-- Fire icon (flame shape) -->
  <g transform="translate(30, 20)">
    <path d="M30 70 C10 70, 0 50, 10 35 C5 30, 10 20, 20 25 C25 15, 35 20, 35 30 C45 25, 50 35, 45 40 C55 45, 50 60, 40 65 C45 75, 35 80, 30 70 Z" 
          fill="white" 
          stroke="none"/>
    <!-- Inner flame highlight -->
    <path d="M30 65 C18 65, 15 50, 20 40 C22 35, 28 38, 30 45 C32 40, 38 42, 38 48 C42 45, 43 55, 38 58 C40 65, 35 70, 30 65 Z" 
          fill="#4A90E2" 
          opacity="0.6"/>
  </g>
  
  <!-- Text "FireEMS.AI" -->
  <text x="110" y="75" 
        font-family="Arial, sans-serif" 
        font-size="36" 
        font-weight="bold" 
        fill="white" 
        text-anchor="start">
    FireEMS.AI
  </text>
</svg>